<svg width="561" height="383" viewBox="0 0 561 383" fill="none" xmlns="http://www.w3.org/2000/svg">
    <path d="M557.693 193.12L556.101 192.967L557.693 193.12ZM344.817 27.8766L344.085 26.4536L344.817 27.8766ZM370.861 237.23L372.02 238.334L370.861 237.23ZM329.381 144.468C328.52 144.666 327.983 145.525 328.181 146.386C328.379 147.247 329.238 147.785 330.099 147.586L329.381 144.468ZM-17.8849 377.168C-17.0132 377.313 -16.1889 376.724 -16.0437 375.852C-15.8985 374.981 -16.4873 374.156 -17.359 374.011L-17.8849 377.168ZM-7.20326 375.524C-8.07924 375.408 -8.88354 376.024 -8.99971 376.9C-9.11587 377.776 -8.49992 378.58 -7.62393 378.696L-7.20326 375.524ZM-6.80537 378.804C-5.92911 378.918 -5.12627 378.3 -5.01218 377.424C-4.89808 376.548 -5.51593 375.745 -6.39219 375.631L-6.80537 378.804ZM3.89562 376.824C3.01659 376.734 2.23079 377.373 2.1405 378.252C2.0502 379.132 2.68959 379.917 3.56862 380.008L3.89562 376.824ZM4.36833 380.089C5.24753 380.178 6.03211 379.537 6.12073 378.658C6.20936 377.778 5.56848 376.994 4.68928 376.905L4.36833 380.089ZM15.1512 377.835C14.2702 377.767 13.5005 378.426 13.4321 379.307C13.3637 380.188 14.0225 380.957 14.9035 381.026L15.1512 377.835ZM15.687 381.086C16.5681 381.153 17.3367 380.493 17.4037 379.612C17.4707 378.731 16.8107 377.962 15.9296 377.895L15.687 381.086ZM26.2887 378.579C25.4064 378.529 24.6508 379.204 24.601 380.086C24.5512 380.969 25.226 381.724 26.1083 381.774L26.2887 378.579ZM26.9277 381.82C27.81 381.868 28.5646 381.192 28.6132 380.31C28.6617 379.428 27.9858 378.673 27.1035 378.625L26.9277 381.82ZM37.4712 379.104C36.5881 379.071 35.8452 379.76 35.8118 380.643C35.7784 381.526 36.4671 382.269 37.3502 382.302L37.4712 379.104ZM38.1499 382.332C39.033 382.364 39.775 381.674 39.8073 380.791C39.8396 379.908 39.15 379.166 38.2669 379.134L38.1499 382.332ZM48.7969 379.436C47.9134 379.417 47.1822 380.118 47.1636 381.002C47.145 381.885 47.8462 382.617 48.7296 382.635L48.7969 379.436ZM49.5403 382.652C50.4238 382.669 51.1543 381.967 51.1718 381.084C51.1894 380.2 50.4875 379.47 49.604 379.452L49.5403 382.652ZM59.9072 379.585C59.0236 379.58 58.3029 380.292 58.2975 381.176C58.2921 382.059 59.0041 382.78 59.8877 382.785L59.9072 379.585ZM60.6952 382.79C61.5789 382.794 62.2988 382.082 62.3033 381.198C62.3078 380.314 61.595 379.594 60.7114 379.59L60.6952 382.79ZM71.2066 379.574C70.323 379.581 69.6123 380.303 69.6192 381.187C69.6262 382.07 70.3482 382.781 71.2318 382.774L71.2066 379.574ZM72.0236 382.767C72.9072 382.76 73.6172 382.037 73.6094 381.153C73.6017 380.27 72.879 379.56 71.9954 379.568L72.0236 382.767ZM82.3729 379.414C81.4894 379.432 80.788 380.163 80.8063 381.047C80.8246 381.93 81.5557 382.631 82.4391 382.613L82.3729 379.414ZM83.2495 382.596C84.1329 382.577 84.8336 381.845 84.8145 380.962C84.7954 380.078 84.0638 379.378 83.1803 379.397L83.2495 382.596ZM93.6314 379.111C92.7482 379.14 92.0558 379.88 92.0848 380.763C92.1138 381.646 92.8533 382.339 93.7365 382.31L93.6314 379.111ZM94.5321 382.283C95.4153 382.253 96.1071 381.513 96.0773 380.63C96.0475 379.747 95.3075 379.055 94.4243 379.085L94.5321 382.283ZM104.83 378.678C103.947 378.718 103.263 379.465 103.302 380.348C103.342 381.231 104.089 381.914 104.972 381.875L104.83 378.678ZM105.782 381.839C106.665 381.799 107.348 381.051 107.308 380.168C107.268 379.286 106.52 378.602 105.638 378.642L105.782 381.839ZM116.061 378.118C115.178 378.167 114.503 378.922 114.551 379.804C114.6 380.686 115.355 381.362 116.237 381.313L116.061 378.118ZM117.035 381.269C117.917 381.219 118.592 380.464 118.542 379.582C118.493 378.699 117.738 378.024 116.855 378.074L117.035 381.269ZM127.262 377.439C126.38 377.497 125.713 378.259 125.771 379.14C125.829 380.022 126.591 380.69 127.472 380.632L127.262 377.439ZM128.281 380.578C129.163 380.519 129.83 379.757 129.771 378.875C129.712 377.993 128.95 377.326 128.068 377.385L128.281 380.578ZM138.474 376.642C137.593 376.709 136.933 377.478 137 378.359C137.067 379.24 137.836 379.9 138.717 379.832L138.474 376.642ZM139.514 379.771C140.395 379.704 141.054 378.935 140.987 378.053C140.919 377.172 140.15 376.513 139.269 376.581L139.514 379.771ZM149.661 375.733C148.781 375.809 148.128 376.584 148.204 377.465C148.28 378.345 149.055 378.997 149.936 378.921L149.661 375.733ZM150.742 378.852C151.622 378.775 152.274 378 152.197 377.119C152.121 376.239 151.345 375.587 150.465 375.664L150.742 378.852ZM160.857 374.713C159.978 374.798 159.333 375.579 159.418 376.459C159.502 377.339 160.284 377.983 161.163 377.899L160.857 374.713ZM161.96 377.822C162.839 377.737 163.483 376.955 163.398 376.075C163.313 375.196 162.531 374.552 161.652 374.637L161.96 377.822ZM172.022 373.588C171.143 373.68 170.506 374.468 170.599 375.347C170.691 376.226 171.479 376.863 172.358 376.77L172.022 373.588ZM173.161 376.685C174.04 376.591 174.676 375.803 174.583 374.925C174.489 374.046 173.701 373.409 172.822 373.503L173.161 376.685ZM183.202 372.353C182.324 372.454 181.694 373.247 181.795 374.125C181.897 375.003 182.69 375.633 183.568 375.532L183.202 372.353ZM184.364 375.44C185.241 375.338 185.871 374.544 185.769 373.666C185.667 372.788 184.873 372.159 183.995 372.261L184.364 375.44ZM194.339 371.016C193.462 371.125 192.84 371.925 192.949 372.802C193.059 373.679 193.858 374.301 194.735 374.191L194.339 371.016ZM195.535 374.091C196.412 373.981 197.033 373.181 196.923 372.305C196.813 371.428 196.013 370.806 195.136 370.916L195.535 374.091ZM205.497 369.57C204.621 369.688 204.006 370.493 204.124 371.369C204.242 372.245 205.047 372.859 205.923 372.742L205.497 369.57ZM206.717 372.635C207.593 372.517 208.207 371.711 208.089 370.835C207.971 369.959 207.165 369.345 206.289 369.464L206.717 372.635ZM216.605 368.025C215.731 368.151 215.124 368.962 215.25 369.836C215.376 370.711 216.187 371.318 217.061 371.192L216.605 368.025ZM217.858 371.077C218.733 370.951 219.339 370.139 219.213 369.265C219.086 368.39 218.275 367.784 217.4 367.91L217.858 371.077ZM227.732 366.37C226.859 366.504 226.26 367.321 226.394 368.194C226.528 369.067 227.345 369.667 228.218 369.532L227.732 366.37ZM229.012 369.41C229.885 369.276 230.484 368.458 230.349 367.585C230.214 366.712 229.397 366.113 228.524 366.248L229.012 369.41ZM238.813 364.613C237.941 364.756 237.349 365.578 237.492 366.451C237.634 367.323 238.457 367.914 239.329 367.772L238.813 364.613ZM240.123 367.642C240.995 367.498 241.586 366.676 241.443 365.804C241.3 364.932 240.477 364.341 239.605 364.484L240.123 367.642ZM249.898 362.747C249.027 362.898 248.443 363.726 248.594 364.597C248.745 365.468 249.573 366.051 250.444 365.9L249.898 362.747ZM251.236 365.763C252.107 365.611 252.69 364.782 252.538 363.912C252.387 363.041 251.558 362.458 250.687 362.61L251.236 365.763ZM260.951 360.775C260.082 360.935 259.506 361.768 259.666 362.638C259.825 363.507 260.659 364.082 261.528 363.922L260.951 360.775ZM262.319 363.777C263.188 363.617 263.763 362.783 263.603 361.914C263.443 361.045 262.609 360.47 261.74 360.63L262.319 363.777ZM271.983 358.693C271.116 358.861 270.549 359.701 270.717 360.568C270.886 361.436 271.725 362.003 272.593 361.835L271.983 358.693ZM273.382 361.681C274.249 361.512 274.816 360.672 274.647 359.805C274.478 358.938 273.638 358.371 272.77 358.54L273.382 361.681ZM283.006 356.497C282.14 356.674 281.582 357.519 281.759 358.385C281.936 359.251 282.781 359.809 283.647 359.632L283.006 356.497ZM284.436 359.47C285.301 359.292 285.859 358.446 285.681 357.581C285.503 356.715 284.657 356.158 283.792 356.336L284.436 359.47ZM293.986 354.189C293.123 354.375 292.573 355.227 292.76 356.09C292.946 356.954 293.797 357.503 294.661 357.317L293.986 354.189ZM295.446 357.147C296.31 356.96 296.858 356.109 296.671 355.245C296.484 354.381 295.632 353.833 294.769 354.02L295.446 357.147ZM304.962 351.759C304.101 351.954 303.561 352.812 303.757 353.673C303.952 354.535 304.81 355.075 305.671 354.879L304.962 351.759ZM306.457 354.7C307.318 354.504 307.857 353.646 307.661 352.785C307.465 351.923 306.607 351.384 305.745 351.581L306.457 354.7ZM315.889 349.212C315.03 349.417 314.5 350.28 314.705 351.14C314.911 351.999 315.774 352.529 316.633 352.324L315.889 349.212ZM317.413 352.137C318.273 351.931 318.802 351.067 318.596 350.208C318.39 349.349 317.526 348.819 316.667 349.025L317.413 352.137ZM326.803 346.534C325.946 346.75 325.426 347.619 325.642 348.476C325.858 349.333 326.727 349.853 327.584 349.638L326.803 346.534ZM328.366 349.44C329.223 349.224 329.742 348.354 329.526 347.497C329.31 346.641 328.44 346.122 327.583 346.338L328.366 349.44ZM337.67 343.73C336.816 343.956 336.307 344.832 336.533 345.686C336.759 346.54 337.635 347.05 338.489 346.823L337.67 343.73ZM339.264 346.618C340.118 346.391 340.626 345.515 340.399 344.661C340.173 343.807 339.296 343.298 338.442 343.525L339.264 346.618ZM348.507 340.788C347.655 341.025 347.157 341.907 347.394 342.759C347.631 343.61 348.514 344.108 349.365 343.871L348.507 340.788ZM350.143 343.654C350.994 343.416 351.492 342.533 351.254 341.682C351.016 340.831 350.133 340.334 349.282 340.572L350.143 343.654ZM359.304 337.704C358.456 337.953 357.97 338.841 358.218 339.689C358.466 340.537 359.355 341.023 360.203 340.775L359.304 337.704ZM360.972 340.549C361.82 340.3 362.305 339.411 362.056 338.563C361.807 337.715 360.917 337.23 360.07 337.479L360.972 340.549ZM370.046 334.474C369.202 334.735 368.728 335.63 368.989 336.475C369.249 337.319 370.145 337.793 370.989 337.532L370.046 334.474ZM371.763 337.293C372.607 337.032 373.08 336.135 372.818 335.291C372.557 334.447 371.661 333.975 370.817 334.236L371.763 337.293ZM380.756 331.083C379.916 331.356 379.456 332.259 379.729 333.099C380.002 333.939 380.905 334.399 381.745 334.126L380.756 331.083ZM382.507 333.878C383.347 333.604 383.806 332.701 383.532 331.861C383.258 331.021 382.355 330.562 381.515 330.836L382.507 333.878ZM391.388 327.534C390.552 327.821 390.107 328.73 390.393 329.566C390.68 330.402 391.59 330.848 392.426 330.561L391.388 327.534ZM393.193 330.298C394.028 330.01 394.473 329.1 394.185 328.264C393.898 327.428 392.987 326.984 392.152 327.272L393.193 330.298ZM401.985 323.801C401.154 324.102 400.724 325.019 401.025 325.85C401.325 326.681 402.243 327.111 403.074 326.81L401.985 323.801ZM403.826 326.537C404.657 326.235 405.085 325.317 404.784 324.487C404.482 323.656 403.564 323.228 402.733 323.53L403.826 326.537ZM412.486 319.892C411.66 320.208 411.247 321.133 411.563 321.958C411.879 322.784 412.804 323.196 413.63 322.881L412.486 319.892ZM414.388 322.59C415.213 322.273 415.625 321.347 415.308 320.522C414.99 319.697 414.065 319.286 413.24 319.603L414.388 322.59ZM422.93 315.777C422.111 316.109 421.716 317.042 422.048 317.861C422.381 318.68 423.314 319.074 424.132 318.742L422.93 315.777ZM424.873 318.441C425.691 318.107 426.084 317.174 425.751 316.355C425.418 315.537 424.484 315.144 423.666 315.477L424.873 318.441ZM433.274 311.453C432.463 311.802 432.088 312.743 432.438 313.555C432.787 314.367 433.729 314.741 434.54 314.391L433.274 311.453ZM435.286 314.069C436.097 313.719 436.47 312.777 436.119 311.966C435.768 311.155 434.826 310.782 434.015 311.133L435.286 314.069ZM443.507 306.904C442.704 307.273 442.352 308.223 442.72 309.026C443.089 309.829 444.038 310.181 444.842 309.813L443.507 306.904ZM445.565 309.48C446.368 309.11 446.719 308.16 446.349 307.357C445.979 306.555 445.029 306.204 444.226 306.574L445.565 309.48ZM453.657 302.093C452.863 302.482 452.535 303.441 452.924 304.234C453.313 305.028 454.271 305.356 455.065 304.967L453.657 302.093ZM455.793 304.609C456.585 304.219 456.912 303.26 456.521 302.467C456.131 301.674 455.172 301.348 454.379 301.739L455.793 304.609ZM463.595 297.052C462.813 297.463 462.512 298.43 462.923 299.213C463.334 299.995 464.301 300.296 465.083 299.885L463.595 297.052ZM465.784 299.516C466.566 299.103 466.865 298.135 466.452 297.354C466.04 296.573 465.072 296.274 464.29 296.686L465.784 299.516ZM473.486 291.66C472.717 292.095 472.447 293.072 472.882 293.841C473.318 294.61 474.294 294.88 475.063 294.445L473.486 291.66ZM475.765 294.046C476.533 293.609 476.801 292.632 476.364 291.864C475.926 291.096 474.95 290.828 474.182 291.265L475.765 294.046ZM483.058 286.024C482.304 286.486 482.068 287.471 482.53 288.224C482.991 288.978 483.977 289.214 484.73 288.752L483.058 286.024ZM485.432 288.321C486.184 287.857 486.418 286.871 485.954 286.119C485.49 285.367 484.504 285.133 483.752 285.597L485.432 288.321ZM492.535 279.959C491.801 280.451 491.604 281.444 492.095 282.179C492.586 282.913 493.58 283.111 494.314 282.619L492.535 279.959ZM494.979 282.174C495.712 281.68 495.906 280.686 495.413 279.953C494.919 279.22 493.925 279.025 493.192 279.519L494.979 282.174ZM501.683 273.548C500.971 274.071 500.819 275.073 501.342 275.785C501.866 276.496 502.867 276.649 503.579 276.125L501.683 273.548ZM504.236 275.641C504.946 275.115 505.095 274.113 504.569 273.403C504.043 272.693 503.041 272.544 502.331 273.07L504.236 275.641ZM510.45 266.758C509.765 267.317 509.664 268.325 510.223 269.01C510.782 269.694 511.79 269.796 512.474 269.237L510.45 266.758ZM513.085 268.736C513.767 268.174 513.865 267.166 513.303 266.484C512.741 265.801 511.733 265.704 511.051 266.265L513.085 268.736ZM518.939 259.404C518.289 260.003 518.247 261.015 518.846 261.665C519.445 262.315 520.457 262.357 521.107 261.758L518.939 259.404ZM521.697 261.212C522.344 260.611 522.382 259.598 521.78 258.951C521.178 258.303 520.166 258.266 519.519 258.868L521.697 261.212ZM526.866 251.602C526.258 252.244 526.286 253.256 526.927 253.864C527.569 254.472 528.581 254.445 529.189 253.803L526.866 251.602ZM529.75 253.208C530.355 252.563 530.322 251.551 529.677 250.946C529.033 250.342 528.02 250.374 527.416 251.019L529.75 253.208ZM534.15 243.3C533.594 243.987 533.701 244.995 534.388 245.55C535.075 246.106 536.083 245.999 536.638 245.312L534.15 243.3ZM537.158 244.665C537.709 243.974 537.596 242.968 536.906 242.416C536.215 241.865 535.208 241.978 534.657 242.669L537.158 244.665ZM540.758 234.331C540.267 235.066 540.466 236.06 541.202 236.55C541.937 237.04 542.93 236.841 543.42 236.105L540.758 234.331ZM543.863 235.436C544.348 234.697 544.142 233.705 543.404 233.22C542.665 232.735 541.673 232.941 541.188 233.68L543.863 235.436ZM546.42 224.804C546.01 225.587 546.312 226.554 547.095 226.964C547.878 227.374 548.844 227.071 549.254 226.288L546.42 224.804ZM549.629 225.566C550.033 224.78 549.722 223.816 548.936 223.412C548.15 223.009 547.186 223.319 546.782 224.105L549.629 225.566ZM550.958 214.756C550.644 215.582 551.058 216.507 551.884 216.821C552.709 217.136 553.634 216.722 553.948 215.896L550.958 214.756ZM554.237 215.129C554.544 214.301 554.121 213.38 553.293 213.073C552.464 212.765 551.544 213.188 551.236 214.016L554.237 215.129ZM554.216 204.241C554.01 205.1 554.539 205.963 555.399 206.169C556.258 206.375 557.122 205.846 557.328 204.986L554.216 204.241ZM557.514 204.191C557.712 203.33 557.174 202.471 556.313 202.273C555.452 202.075 554.593 202.613 554.396 203.474L557.514 204.191ZM556.062 193.361C555.973 194.24 556.614 195.025 557.493 195.114C558.372 195.202 559.157 194.562 559.246 193.682L556.062 193.361ZM559.323 192.879C559.406 191.999 558.76 191.219 557.88 191.136C557 191.054 556.22 191.7 556.137 192.58L559.323 192.879ZM556.82 182.213C556.785 183.096 557.472 183.84 558.355 183.875C559.238 183.91 559.982 183.223 560.017 182.34L556.82 182.213ZM560.048 181.529C560.08 180.646 559.39 179.904 558.507 179.872C557.624 179.841 556.882 180.531 556.85 181.414L560.048 181.529ZM556.984 170.956C556.992 171.84 557.715 172.55 558.599 172.541C559.483 172.533 560.192 171.81 560.184 170.926L556.984 170.956ZM560.174 170.103C560.163 169.219 559.438 168.512 558.554 168.523C557.67 168.535 556.963 169.26 556.975 170.144L560.174 170.103ZM556.621 159.675C556.669 160.557 557.423 161.234 558.305 161.186C559.188 161.138 559.864 160.384 559.816 159.501L556.621 159.675ZM559.77 158.684C559.72 157.802 558.964 157.128 558.081 157.178C557.199 157.229 556.525 157.985 556.576 158.867L559.77 158.684ZM555.772 148.454C555.857 149.334 556.639 149.978 557.519 149.893C558.398 149.807 559.042 149.025 558.957 148.146L555.772 148.454ZM558.878 147.342C558.79 146.463 558.006 145.821 557.127 145.909C556.247 145.997 555.606 146.781 555.694 147.66L558.878 147.342ZM554.453 137.278C554.575 138.154 555.383 138.764 556.258 138.642C557.133 138.521 557.744 137.712 557.622 136.837L554.453 137.278ZM557.509 136.033C557.385 135.159 556.575 134.55 555.7 134.675C554.825 134.799 554.217 135.609 554.341 136.484L557.509 136.033ZM552.665 126.16C552.824 127.03 553.657 127.606 554.526 127.447C555.396 127.288 555.972 126.454 555.813 125.585L552.665 126.16ZM555.665 124.785C555.504 123.916 554.669 123.343 553.8 123.504C552.931 123.666 552.358 124.501 552.519 125.37L555.665 124.785ZM550.399 115.129C550.596 115.991 551.454 116.53 552.316 116.333C553.177 116.136 553.716 115.278 553.519 114.416L550.399 115.129ZM553.336 113.622C553.136 112.761 552.276 112.225 551.415 112.425C550.555 112.625 550.019 113.485 550.219 114.345L553.336 113.622ZM547.638 104.216C547.875 105.067 548.757 105.566 549.608 105.329C550.46 105.092 550.958 104.21 550.721 103.358L547.638 104.216ZM550.501 102.573C550.261 101.723 549.378 101.228 548.527 101.467C547.676 101.707 547.181 102.591 547.421 103.442L550.501 102.573ZM544.356 93.455C544.635 94.2935 545.541 94.7469 546.38 94.4678C547.218 94.1887 547.672 93.2828 547.392 92.4443L544.356 93.455ZM547.134 91.6713C546.851 90.834 545.944 90.3839 545.106 90.6661C544.269 90.9484 543.819 91.856 544.101 92.6934L547.134 91.6713ZM540.521 82.8885C540.846 83.7105 541.775 84.114 542.597 83.7897C543.419 83.4654 543.822 82.5361 543.498 81.7141L540.521 82.8885ZM543.197 80.9568C542.87 80.1362 541.939 79.7365 541.118 80.0642C540.298 80.3918 539.898 81.3227 540.226 82.1434L543.197 80.9568ZM536.094 72.5688C536.467 73.3699 537.419 73.717 538.22 73.3441C539.021 72.9711 539.368 72.0194 538.995 71.2183L536.094 72.5688ZM538.649 70.479C538.273 69.6796 537.319 69.3368 536.52 69.7133C535.721 70.0899 535.378 71.0432 535.754 71.8426L538.649 70.479ZM531.029 62.5564C531.455 63.331 532.427 63.6141 533.202 63.1887C533.977 62.7634 534.26 61.7907 533.834 61.0161L531.029 62.5564ZM533.438 60.2985C533.009 59.5261 532.034 59.2479 531.262 59.6772C530.49 60.1064 530.212 61.0805 530.641 61.8529L533.438 60.2985ZM525.279 52.933C525.761 53.6739 526.752 53.884 527.492 53.4024C528.233 52.9208 528.443 51.9297 527.962 51.1889L525.279 52.933ZM527.513 50.5026C527.027 49.7645 526.035 49.5599 525.297 50.0457C524.559 50.5315 524.354 51.5237 524.84 52.2618L527.513 50.5026ZM518.801 43.8039C519.342 44.5023 520.347 44.6296 521.046 44.0882C521.744 43.5469 521.871 42.5418 521.33 41.8434L518.801 43.8039ZM520.825 41.1969C520.28 40.5019 519.274 40.3809 518.579 40.9267C517.884 41.4724 517.763 42.4783 518.309 43.1732L520.825 41.1969ZM511.561 35.2911C512.164 35.9367 513.177 35.9707 513.822 35.3673C514.468 34.7638 514.502 33.7513 513.898 33.1058L511.561 35.2911ZM513.336 32.5086C512.728 31.8673 511.716 31.8403 511.074 32.4482C510.433 33.0561 510.406 34.0688 511.014 34.7101L513.336 32.5086ZM503.544 27.5327C504.209 28.1136 505.22 28.0448 505.801 27.379C506.382 26.7131 506.313 25.7024 505.647 25.1215L503.544 27.5327ZM505.026 24.5839C504.356 24.008 503.346 24.0845 502.77 24.7548C502.194 25.425 502.271 26.4352 502.941 27.0111L505.026 24.5839ZM494.762 20.6735C495.487 21.1779 496.484 20.9987 496.989 20.2732C497.493 19.5477 497.314 18.5506 496.589 18.0462L494.762 20.6735ZM495.91 17.5787C495.181 17.0802 494.185 17.2675 493.687 17.9971C493.188 18.7266 493.375 19.7222 494.105 20.2208L495.91 17.5787ZM485.266 14.8504C486.045 15.2678 487.015 14.9748 487.432 14.1959C487.85 13.4171 487.557 12.4473 486.778 12.0299L485.266 14.8504ZM486.047 11.6419C485.264 11.2311 484.297 11.5323 483.886 12.3146C483.475 13.097 483.777 14.0642 484.559 14.4751L486.047 11.6419ZM475.155 10.1746C475.978 10.4977 476.906 10.0929 477.229 9.27047C477.553 8.44801 477.148 7.51934 476.325 7.19622L475.155 10.1746ZM475.569 6.90251C474.743 6.58619 473.818 6.99864 473.502 7.82374C473.186 8.64883 473.598 9.57414 474.423 9.89046L475.569 6.90251ZM464.584 6.71359C465.438 6.94004 466.314 6.43119 466.54 5.57704C466.767 4.72289 466.258 3.84689 465.404 3.62045L464.584 6.71359ZM464.62 3.41593C463.764 3.19626 462.892 3.71204 462.672 4.56795C462.452 5.42387 462.968 6.2958 463.824 6.51547L464.62 3.41593ZM453.678 4.4584C454.552 4.59042 455.367 3.98914 455.499 3.1154C455.631 2.24166 455.03 1.42633 454.156 1.29431L453.678 4.4584ZM453.356 1.17652C452.482 1.05096 451.671 1.65824 451.545 2.53293C451.42 3.40761 452.027 4.21848 452.902 4.34405L453.356 1.17652ZM442.574 3.35703C443.456 3.40064 444.207 2.72053 444.251 1.83795C444.294 0.955368 443.614 0.204543 442.731 0.160932L442.574 3.35703ZM441.928 0.123915C441.045 0.0862043 440.299 0.771326 440.261 1.65418C440.223 2.53703 440.908 3.28329 441.791 3.321L441.928 0.123915ZM431.382 3.32194C432.265 3.28539 432.951 2.54003 432.914 1.65713C432.878 0.774232 432.132 0.0881275 431.249 0.124674L431.382 3.32194ZM430.452 0.160074C429.569 0.201858 428.887 0.951274 428.929 1.83394C428.971 2.71661 429.72 3.39828 430.603 3.35649L430.452 0.160074ZM420.204 4.24656C421.081 4.13902 421.705 3.34081 421.597 2.46373C421.49 1.58664 420.691 0.962805 419.814 1.07035L420.204 4.24656ZM419.006 1.17165C418.13 1.28389 417.51 2.08542 417.622 2.96192C417.734 3.83842 418.536 4.45797 419.413 4.34573L419.006 1.17165ZM409.193 6.0016C410.06 5.83247 410.626 4.99226 410.457 4.12494C410.288 3.25762 409.447 2.69163 408.58 2.86076L409.193 6.0016ZM407.76 3.02278C406.893 3.19611 406.331 4.03905 406.505 4.90554C406.678 5.77203 407.521 6.33395 408.387 6.16062L407.76 3.02278ZM398.299 8.48701C399.155 8.26436 399.667 7.39063 399.445 6.53548C399.222 5.68034 398.348 5.1676 397.493 5.39026L398.299 8.48701ZM396.697 5.59929C395.843 5.82553 395.334 6.70141 395.56 7.55561C395.786 8.40981 396.662 8.91887 397.516 8.69263L396.697 5.59929ZM387.51 11.6218C388.351 11.3526 388.815 10.452 388.546 9.61038C388.277 8.76874 387.376 8.30473 386.535 8.57398L387.51 11.6218ZM385.767 8.82119C384.926 9.09349 384.465 9.99571 384.738 10.8364C385.01 11.677 385.912 12.1378 386.753 11.8655L385.767 8.82119ZM376.791 15.3478C377.619 15.0378 378.038 14.1157 377.728 13.2882C377.418 12.4607 376.496 12.0412 375.669 12.3512L376.791 15.3478ZM374.931 12.6289C374.104 12.9415 373.688 13.865 374 14.6915C374.313 15.518 375.236 15.9346 376.063 15.622L374.931 12.6289ZM366.426 19.4896C367.239 19.1447 367.619 18.2055 367.274 17.392C366.929 16.5784 365.99 16.1985 365.177 16.5434L366.426 19.4896ZM364.414 16.8681C363.601 17.2153 363.224 18.1556 363.571 18.9681C363.919 19.7807 364.859 20.1579 365.671 19.8106L364.414 16.8681ZM356.168 24.0744C356.968 23.6988 357.312 22.7459 356.937 21.9461C356.561 21.1462 355.608 20.8023 354.808 21.1779L356.168 24.0744ZM354.079 21.5213C353.28 21.8989 352.939 22.8527 353.317 23.6516C353.694 24.4505 354.648 24.792 355.447 24.4143L354.079 21.5213ZM345.92 29.1088C346.706 28.7058 347.017 27.7416 346.614 26.9552C346.211 26.1688 345.247 25.8579 344.461 26.2609L345.92 29.1088ZM343.709 26.6474C342.923 27.0521 342.614 28.017 343.019 28.8025C343.424 29.588 344.389 29.8967 345.174 29.4919L343.709 26.6474ZM335.715 34.5291C336.489 34.103 336.771 33.13 336.345 32.3559C335.919 31.5818 334.946 31.2997 334.172 31.7258L335.715 34.5291ZM333.458 32.1196C332.685 32.5474 332.405 33.521 332.833 34.2942C333.261 35.0674 334.235 35.3474 335.008 34.9196L333.458 32.1196ZM326.07 40.0315C326.831 39.5817 327.083 38.6004 326.633 37.8399C326.183 37.0793 325.202 36.8274 324.441 37.2772L326.07 40.0315ZM323.753 37.6856C322.993 38.1372 322.743 39.119 323.195 39.8786C323.647 40.6381 324.628 40.8878 325.388 40.4362L323.753 37.6856ZM316.28 46.0513C317.025 45.5752 317.242 44.5857 316.766 43.8413C316.29 43.0969 315.301 42.8794 314.556 43.3556L316.28 46.0513ZM313.871 43.7948C313.128 44.2728 312.913 45.2628 313.391 46.006C313.869 46.7492 314.859 46.9641 315.602 46.4861L313.871 43.7948ZM307.019 52.2161C307.745 51.7127 307.926 50.7159 307.422 49.9896C306.919 49.2634 305.922 49.0828 305.196 49.5862L307.019 52.2161ZM304.503 50.0681C303.778 50.5737 303.6 51.571 304.106 52.2958C304.611 53.0206 305.609 53.1983 306.333 52.6927L304.503 50.0681ZM297.757 58.9234C298.461 58.39 298.6 57.3864 298.067 56.682C297.533 55.9775 296.53 55.8389 295.825 56.3723L297.757 58.9234ZM295.183 56.86C294.48 57.3956 294.345 58.3996 294.88 59.1024C295.416 59.8053 296.42 59.9408 297.123 59.4052L295.183 56.86ZM288.955 65.9038C289.635 65.3388 289.728 64.33 289.163 63.6506C288.598 62.9712 287.589 62.8784 286.909 63.4434L288.955 65.9038ZM286.27 63.9769C285.593 64.5443 285.503 65.5534 286.071 66.2308C286.638 66.9083 287.647 66.9975 288.325 66.4302L286.27 63.9769ZM280.498 73.2992C281.148 72.7007 281.19 71.6884 280.591 71.0384C279.993 70.3883 278.98 70.3466 278.33 70.9452L280.498 73.2992ZM277.748 71.4835C277.1 72.0844 277.062 73.0968 277.663 73.7446C278.264 74.3924 279.276 74.4304 279.924 73.8295L277.748 71.4835ZM272.37 81.2127C272.985 80.5783 272.969 79.5654 272.335 78.9503C271.7 78.3352 270.687 78.3508 270.072 78.9852L272.37 81.2127ZM269.506 79.5713C268.894 80.2083 268.914 81.2211 269.551 81.8335C270.188 82.446 271.201 82.426 271.813 81.789L269.506 79.5713ZM264.821 89.4906C265.395 88.8191 265.317 87.8091 264.645 87.2347C263.974 86.6603 262.964 86.739 262.389 87.4105L264.821 89.4906ZM261.849 88.0453C261.278 88.7195 261.361 89.7291 262.036 90.3003C262.71 90.8715 263.72 90.7879 264.291 90.1136L261.849 88.0453ZM257.854 98.2186C258.381 97.509 258.232 96.5069 257.523 95.9802C256.813 95.4536 255.811 95.6018 255.284 96.3114L257.854 98.2186ZM254.804 96.9621C254.281 97.6744 254.434 98.6758 255.147 99.1987C255.859 99.7217 256.86 99.5682 257.383 98.8559L254.804 96.9621ZM251.467 107.549C251.937 106.801 251.711 105.813 250.963 105.343C250.214 104.874 249.227 105.099 248.757 105.848L251.467 107.549ZM248.33 106.531C247.865 107.282 248.096 108.268 248.847 108.734C249.598 109.2 250.585 108.968 251.05 108.217L248.33 106.531ZM245.899 117.306C246.304 116.52 245.994 115.556 245.208 115.152C244.422 114.748 243.458 115.057 243.054 115.843L245.899 117.306ZM242.683 116.57C242.284 117.359 242.599 118.321 243.388 118.72C244.176 119.119 245.139 118.804 245.538 118.015L242.683 116.57ZM241.246 127.487C241.575 126.667 241.176 125.735 240.356 125.407C239.536 125.078 238.604 125.476 238.276 126.297L241.246 127.487ZM237.972 127.063C237.649 127.885 238.054 128.814 238.877 129.137C239.699 129.46 240.628 129.054 240.951 128.232L237.972 127.063ZM237.616 138.056C237.86 137.207 237.369 136.321 236.519 136.077C235.67 135.834 234.784 136.325 234.54 137.174L237.616 138.056ZM234.315 137.971C234.078 138.823 234.576 139.705 235.427 139.942C236.279 140.179 237.161 139.681 237.398 138.83L234.315 137.971ZM235.123 148.941C235.273 148.07 234.688 147.243 233.817 147.094C232.946 146.944 232.119 147.529 231.969 148.4L235.123 148.941ZM231.832 149.218C231.69 150.09 232.281 150.913 233.153 151.055C234.025 151.198 234.848 150.606 234.99 149.734L231.832 149.218ZM233.864 160.033C233.912 159.151 233.237 158.396 232.354 158.347C231.472 158.299 230.717 158.974 230.669 159.857L233.864 160.033ZM230.626 160.685C230.585 161.568 231.267 162.317 232.15 162.358C233.032 162.4 233.781 161.718 233.823 160.835L230.626 160.685ZM233.906 171.194C233.85 170.312 233.09 169.642 232.208 169.698C231.326 169.754 230.657 170.514 230.712 171.396L233.906 171.194ZM230.768 172.223C230.832 173.104 231.598 173.767 232.479 173.704C233.361 173.64 234.024 172.874 233.96 171.993L230.768 172.223ZM235.279 182.269C235.118 181.4 234.283 180.826 233.414 180.987C232.545 181.149 231.971 181.984 232.133 182.852L235.279 182.269ZM232.287 183.665C232.456 184.532 233.295 185.098 234.163 184.93C235.03 184.761 235.597 183.921 235.428 183.054L232.287 183.665ZM237.97 193.1C237.706 192.256 236.808 191.787 235.965 192.051C235.122 192.315 234.652 193.213 234.916 194.056L237.97 193.1ZM235.166 194.842C235.437 195.683 236.339 196.145 237.18 195.874C238.021 195.603 238.483 194.701 238.212 193.86L235.166 194.842ZM241.933 203.535C241.571 202.729 240.624 202.369 239.818 202.731C239.011 203.093 238.651 204.04 239.013 204.846L241.933 203.535ZM239.354 205.597C239.723 206.4 240.673 206.752 241.476 206.383C242.279 206.014 242.631 205.064 242.262 204.261L239.354 205.597ZM247.095 213.436C246.642 212.678 245.659 212.431 244.901 212.884C244.143 213.338 243.895 214.32 244.349 215.079L247.095 213.436ZM244.774 215.783C245.234 216.538 246.219 216.777 246.973 216.317C247.728 215.857 247.967 214.873 247.507 214.118L244.774 215.783ZM253.372 222.673C252.834 221.972 251.829 221.84 251.128 222.378C250.427 222.916 250.295 223.92 250.833 224.621L253.372 222.673ZM251.336 225.271C251.88 225.968 252.885 226.092 253.582 225.548C254.278 225.005 254.402 223.999 253.859 223.303L251.336 225.271ZM260.668 231.127C260.053 230.492 259.04 230.477 258.405 231.091C257.771 231.706 257.755 232.719 258.37 233.354L260.668 231.127ZM258.945 233.943C259.566 234.572 260.579 234.58 261.208 233.96C261.837 233.34 261.845 232.326 261.225 231.697L258.945 233.943ZM268.896 238.685C268.211 238.126 267.203 238.228 266.645 238.913C266.086 239.597 266.188 240.605 266.873 241.164L268.896 238.685ZM267.517 241.685C268.206 242.238 269.213 242.127 269.766 241.438C270.319 240.749 270.208 239.742 269.519 239.189L267.517 241.685ZM277.956 245.219C277.21 244.746 276.221 244.968 275.749 245.715C275.276 246.462 275.498 247.45 276.245 247.923L277.956 245.219ZM276.946 248.362C277.697 248.828 278.683 248.597 279.149 247.847C279.615 247.096 279.384 246.109 278.634 245.643L276.946 248.362ZM287.737 250.587C286.937 250.212 285.985 250.556 285.61 251.356C285.235 252.156 285.579 253.109 286.379 253.484L287.737 250.587ZM287.129 253.831C287.933 254.199 288.882 253.846 289.25 253.042C289.617 252.239 289.264 251.289 288.46 250.922L287.129 253.831ZM298.113 254.635C297.27 254.37 296.372 254.84 296.108 255.683C295.843 256.526 296.312 257.424 297.155 257.688L298.113 254.635ZM297.944 257.932C298.79 258.188 299.683 257.71 299.939 256.864C300.195 256.018 299.717 255.125 298.872 254.869L297.944 257.932ZM308.929 257.198C308.056 257.058 307.235 257.651 307.095 258.524C306.955 259.396 307.549 260.217 308.421 260.357L308.929 257.198ZM309.237 260.484C310.111 260.615 310.926 260.012 311.056 259.138C311.187 258.264 310.585 257.45 309.711 257.319L309.237 260.484ZM319.991 258.109C319.108 258.107 318.389 258.821 318.386 259.704C318.383 260.588 319.097 261.306 319.981 261.309L319.991 258.109ZM320.811 261.307C321.694 261.3 322.405 260.577 322.397 259.694C322.39 258.81 321.668 258.1 320.784 258.107L320.811 261.307ZM331.033 257.234C330.161 257.377 329.571 258.2 329.714 259.072C329.857 259.944 330.68 260.535 331.552 260.392L331.033 257.234ZM332.37 260.252C333.24 260.099 333.821 259.269 333.667 258.398C333.514 257.528 332.684 256.948 331.813 257.101L332.37 260.252ZM341.759 254.517C340.924 254.806 340.482 255.718 340.772 256.553C341.061 257.388 341.973 257.83 342.808 257.54L341.759 254.517ZM343.594 257.262C344.425 256.963 344.856 256.046 344.556 255.214C344.256 254.383 343.34 253.952 342.508 254.252L343.594 257.262ZM351.881 250.012C351.106 250.438 350.824 251.41 351.249 252.185C351.675 252.959 352.648 253.242 353.422 252.816L351.881 250.012ZM354.156 252.407C354.926 251.972 355.197 250.996 354.762 250.226C354.327 249.457 353.351 249.186 352.581 249.621L354.156 252.407ZM361.153 243.892C360.456 244.435 360.331 245.441 360.874 246.138C361.417 246.835 362.422 246.96 363.12 246.417L361.153 243.892ZM363.786 245.892C364.477 245.341 364.591 244.335 364.04 243.644C363.49 242.953 362.483 242.839 361.792 243.389L363.786 245.892ZM369.418 236.424C368.806 237.061 368.826 238.074 369.463 238.686C370.1 239.299 371.113 239.279 371.725 238.642L369.418 236.424ZM372.303 238.034C372.908 237.391 372.877 236.378 372.233 235.773C371.589 235.168 370.577 235.199 369.971 235.843L372.303 238.034ZM376.195 227.976C375.709 228.714 375.913 229.707 376.651 230.193C377.389 230.679 378.381 230.475 378.867 229.737L376.195 227.976ZM379.312 229.051C379.788 228.307 379.571 227.317 378.826 226.841C378.082 226.365 377.092 226.583 376.616 227.327L379.312 229.051ZM381.237 218.449C380.901 219.266 381.291 220.201 382.108 220.537C382.925 220.873 383.86 220.483 384.196 219.666L381.237 218.449ZM384.5 218.914C384.825 218.092 384.422 217.162 383.601 216.837C382.779 216.512 381.849 216.915 381.524 217.737L384.5 218.914ZM384.361 208.131C384.187 208.997 384.748 209.84 385.615 210.014C386.481 210.188 387.324 209.626 387.498 208.76L384.361 208.131ZM387.653 207.959C387.815 207.09 387.242 206.255 386.373 206.093C385.505 205.931 384.669 206.504 384.507 207.372L387.653 207.959ZM385.47 197.403C385.462 198.287 386.172 199.009 387.056 199.017C387.939 199.025 388.662 198.315 388.67 197.431L385.47 197.403ZM388.671 196.616C388.667 195.732 387.947 195.019 387.064 195.023C386.18 195.027 385.467 195.747 385.471 196.631L388.671 196.616ZM384.554 186.649C384.711 187.518 385.543 188.096 386.413 187.939C387.283 187.782 387.86 186.95 387.703 186.08L384.554 186.649ZM387.553 185.281C387.385 184.413 386.545 183.847 385.678 184.015C384.81 184.184 384.244 185.024 384.412 185.891L387.553 185.281ZM381.642 176.264C381.962 177.088 382.888 177.498 383.712 177.179C384.536 176.859 384.946 175.933 384.627 175.109L381.642 176.264ZM384.327 174.35C383.996 173.53 383.064 173.134 382.244 173.465C381.425 173.795 381.028 174.727 381.359 175.547L384.327 174.35ZM376.776 166.665C377.254 167.408 378.244 167.623 378.987 167.144C379.73 166.666 379.945 165.676 379.466 164.933L376.776 166.665ZM379.018 164.248C378.528 163.512 377.535 163.312 376.799 163.802C376.064 164.291 375.864 165.285 376.354 166.02L379.018 164.248ZM370.02 158.334C370.65 158.953 371.663 158.943 372.282 158.312C372.901 157.681 372.891 156.668 372.26 156.049L370.02 158.334ZM371.669 155.479C371.028 154.871 370.015 154.898 369.407 155.539C368.799 156.18 368.826 157.193 369.467 157.801L371.669 155.479ZM361.54 151.837C362.303 152.282 363.283 152.024 363.728 151.26C364.173 150.497 363.914 149.517 363.151 149.072L361.54 151.837ZM362.436 148.664C361.665 148.234 360.69 148.51 360.259 149.282C359.829 150.053 360.105 151.028 360.877 151.459L362.436 148.664ZM351.716 147.731C352.569 147.96 353.447 147.455 353.677 146.602C353.907 145.749 353.401 144.871 352.548 144.641L351.716 147.731ZM351.746 144.433C350.889 144.22 350.021 144.742 349.807 145.599C349.594 146.457 350.116 147.325 350.973 147.538L351.746 144.433ZM341.153 146.321C342.036 146.326 342.757 145.614 342.762 144.731C342.768 143.847 342.056 143.127 341.172 143.121L341.153 146.321ZM340.351 143.123C339.467 143.133 338.759 143.858 338.769 144.741C338.779 145.625 339.503 146.333 340.387 146.323L340.351 143.123ZM330.483 147.499C331.345 147.307 331.889 146.453 331.697 145.59C331.505 144.727 330.65 144.184 329.788 144.376L330.483 147.499ZM-18.2651 377.104C-18.1386 377.125 -18.0118 377.147 -17.8849 377.168L-17.359 374.011C-17.4845 373.99 -17.6098 373.969 -17.7349 373.948L-18.2651 377.104ZM-7.62393 378.696C-7.35176 378.732 -7.07891 378.768 -6.80537 378.804L-6.39219 375.631C-6.66324 375.595 -6.9336 375.56 -7.20326 375.524L-7.62393 378.696ZM3.56862 380.008C3.83465 380.035 4.10122 380.062 4.36833 380.089L4.68928 376.905C4.42417 376.878 4.15962 376.851 3.89562 376.824L3.56862 380.008ZM14.9035 381.026C15.1642 381.046 15.4254 381.066 15.687 381.086L15.9296 377.895C15.6697 377.875 15.4102 377.855 15.1512 377.835L14.9035 381.026ZM26.1083 381.774C26.381 381.789 26.6541 381.805 26.9277 381.82L27.1035 378.625C26.8314 378.61 26.5598 378.594 26.2887 378.579L26.1083 381.774ZM37.3502 382.302C37.6164 382.312 37.883 382.322 38.1499 382.332L38.2669 379.134C38.0013 379.124 37.7361 379.114 37.4712 379.104L37.3502 382.302ZM48.7296 382.635C48.9995 382.641 49.2698 382.646 49.5403 382.652L49.604 379.452C49.3346 379.447 49.0656 379.442 48.7969 379.436L48.7296 382.635ZM59.8877 382.785C60.1566 382.787 60.4258 382.788 60.6952 382.79L60.7114 379.59C60.4431 379.588 60.175 379.587 59.9072 379.585L59.8877 382.785ZM71.2318 382.774C71.4955 382.772 71.7594 382.77 72.0236 382.767L71.9954 379.568C71.7322 379.57 71.4693 379.572 71.2066 379.574L71.2318 382.774ZM82.4391 382.613C82.709 382.607 82.9791 382.602 83.2495 382.596L83.1803 379.397C82.911 379.402 82.6418 379.408 82.3729 379.414L82.4391 382.613ZM93.7365 382.31C94.0015 382.301 94.2667 382.292 94.5321 382.283L94.4243 379.085C94.1598 379.094 93.8955 379.103 93.6314 379.111L93.7365 382.31ZM104.972 381.875C105.242 381.863 105.512 381.851 105.782 381.839L105.638 378.642C105.368 378.654 105.099 378.667 104.83 378.678L104.972 381.875ZM116.237 381.313C116.503 381.299 116.769 381.284 117.035 381.269L116.855 378.074C116.59 378.089 116.325 378.104 116.061 378.118L116.237 381.313ZM127.472 380.632C127.742 380.614 128.011 380.596 128.281 380.578L128.068 377.385C127.799 377.403 127.531 377.421 127.262 377.439L127.472 380.632ZM138.717 379.832C138.982 379.812 139.248 379.792 139.514 379.771L139.269 376.581C139.003 376.601 138.739 376.622 138.474 376.642L138.717 379.832ZM149.936 378.921C150.204 378.898 150.473 378.875 150.742 378.852L150.465 375.664C150.197 375.687 149.929 375.71 149.661 375.733L149.936 378.921ZM161.163 377.899C161.429 377.873 161.694 377.848 161.96 377.822L161.652 374.637C161.387 374.662 161.122 374.688 160.857 374.713L161.163 377.899ZM172.358 376.77C172.625 376.742 172.893 376.713 173.161 376.685L172.822 373.503C172.555 373.531 172.288 373.559 172.022 373.588L172.358 376.77ZM183.568 375.532C183.833 375.501 184.098 375.47 184.364 375.44L183.995 372.261C183.731 372.292 183.466 372.322 183.202 372.353L183.568 375.532ZM194.735 374.191C195.002 374.158 195.268 374.125 195.535 374.091L195.136 370.916C194.871 370.949 194.605 370.983 194.339 371.016L194.735 374.191ZM205.923 372.742C206.188 372.706 206.452 372.671 206.717 372.635L206.289 369.464C206.025 369.499 205.761 369.535 205.497 369.57L205.923 372.742ZM217.061 371.192C217.327 371.154 217.592 371.116 217.858 371.077L217.4 367.91C217.135 367.948 216.87 367.987 216.605 368.025L217.061 371.192ZM228.218 369.532C228.483 369.492 228.747 369.451 229.012 369.41L228.524 366.248C228.26 366.288 227.996 366.329 227.732 366.37L228.218 369.532ZM239.329 367.772C239.594 367.728 239.858 367.685 240.123 367.642L239.605 364.484C239.341 364.527 239.077 364.57 238.813 364.613L239.329 367.772ZM250.444 365.9C250.708 365.854 250.972 365.809 251.236 365.763L250.687 362.61C250.424 362.656 250.161 362.702 249.898 362.747L250.444 365.9ZM261.528 363.922C261.792 363.874 262.056 363.826 262.319 363.777L261.74 360.63C261.477 360.678 261.214 360.727 260.951 360.775L261.528 363.922ZM272.593 361.835C272.856 361.784 273.119 361.732 273.382 361.681L272.77 358.54C272.508 358.591 272.246 358.642 271.983 358.693L272.593 361.835ZM283.647 359.632C283.91 359.578 284.173 359.524 284.436 359.47L283.792 356.336C283.53 356.389 283.268 356.443 283.006 356.497L283.647 359.632ZM294.661 357.317C294.923 357.261 295.184 357.204 295.446 357.147L294.769 354.02C294.508 354.076 294.247 354.133 293.986 354.189L294.661 357.317ZM305.671 354.879C305.933 354.82 306.195 354.76 306.457 354.7L305.745 351.581C305.484 351.64 305.223 351.699 304.962 351.759L305.671 354.879ZM316.633 352.324C316.893 352.262 317.153 352.199 317.413 352.137L316.667 349.025C316.407 349.088 316.148 349.15 315.889 349.212L316.633 352.324ZM327.584 349.638C327.845 349.572 328.106 349.506 328.366 349.44L327.583 346.338C327.323 346.403 327.063 346.469 326.803 346.534L327.584 349.638ZM338.489 346.823C338.747 346.755 339.006 346.687 339.264 346.618L338.442 343.525C338.185 343.594 337.928 343.662 337.67 343.73L338.489 346.823ZM349.365 343.871C349.625 343.799 349.884 343.726 350.143 343.654L349.282 340.572C349.024 340.644 348.765 340.716 348.507 340.788L349.365 343.871ZM360.203 340.775C360.46 340.7 360.716 340.625 360.972 340.549L360.07 337.479C359.814 337.554 359.559 337.629 359.304 337.704L360.203 340.775ZM370.989 337.532C371.247 337.453 371.505 337.373 371.763 337.293L370.817 334.236C370.56 334.316 370.303 334.395 370.046 334.474L370.989 337.532ZM381.745 334.126C381.999 334.044 382.253 333.961 382.507 333.878L381.515 330.836C381.262 330.918 381.009 331.001 380.756 331.083L381.745 334.126ZM392.426 330.561C392.681 330.473 392.937 330.385 393.193 330.298L392.152 327.272C391.897 327.359 391.643 327.447 391.388 327.534L392.426 330.561ZM403.074 326.81C403.325 326.719 403.576 326.628 403.826 326.537L402.733 323.53C402.484 323.62 402.234 323.711 401.985 323.801L403.074 326.81ZM413.63 322.881C413.883 322.784 414.136 322.687 414.388 322.59L413.24 319.603C412.989 319.699 412.737 319.796 412.486 319.892L413.63 322.881ZM424.132 318.742C424.38 318.642 424.626 318.541 424.873 318.441L423.666 315.477C423.421 315.577 423.175 315.677 422.93 315.777L424.132 318.742ZM434.54 314.391C434.789 314.284 435.038 314.177 435.286 314.069L434.015 311.133C433.768 311.239 433.521 311.346 433.274 311.453L434.54 314.391ZM444.842 309.813C445.083 309.702 445.324 309.591 445.565 309.48L444.226 306.574C443.987 306.684 443.747 306.794 443.507 306.904L444.842 309.813ZM455.065 304.967C455.308 304.848 455.55 304.729 455.793 304.609L454.379 301.739C454.139 301.857 453.898 301.975 453.657 302.093L455.065 304.967ZM465.083 299.885C465.317 299.762 465.551 299.639 465.784 299.516L464.29 296.686C464.059 296.808 463.827 296.93 463.595 297.052L465.083 299.885ZM475.063 294.445C475.297 294.312 475.531 294.179 475.765 294.046L474.182 291.265C473.95 291.397 473.719 291.529 473.486 291.66L475.063 294.445ZM484.73 288.752C484.964 288.609 485.198 288.465 485.432 288.321L483.752 285.597C483.521 285.74 483.29 285.882 483.058 286.024L484.73 288.752ZM494.314 282.619C494.536 282.471 494.758 282.322 494.979 282.174L493.192 279.519C492.973 279.666 492.755 279.813 492.535 279.959L494.314 282.619ZM503.579 276.125C503.798 275.964 504.017 275.803 504.236 275.641L502.331 273.07C502.115 273.229 501.899 273.389 501.683 273.548L503.579 276.125ZM512.474 269.237C512.678 269.07 512.882 268.903 513.085 268.736L511.051 266.265C510.851 266.43 510.651 266.594 510.45 266.758L512.474 269.237ZM521.107 261.758C521.304 261.576 521.501 261.394 521.697 261.212L519.519 258.868C519.326 259.047 519.133 259.226 518.939 259.404L521.107 261.758ZM529.189 253.803C529.377 253.605 529.564 253.406 529.75 253.208L527.416 251.019C527.233 251.214 527.05 251.408 526.866 251.602L529.189 253.803ZM536.638 245.312C536.812 245.097 536.986 244.881 537.158 244.665L534.657 242.669C534.489 242.88 534.32 243.09 534.15 243.3L536.638 245.312ZM543.42 236.105C543.569 235.882 543.717 235.659 543.863 235.436L541.188 233.68C541.046 233.897 540.902 234.114 540.758 234.331L543.42 236.105ZM549.254 226.288C549.38 226.048 549.505 225.807 549.629 225.566L546.782 224.105C546.662 224.338 546.542 224.571 546.42 224.804L549.254 226.288ZM553.948 215.896C554.046 215.641 554.142 215.385 554.237 215.129L551.236 214.016C551.145 214.263 551.052 214.51 550.958 214.756L553.948 215.896ZM557.328 204.986C557.391 204.722 557.453 204.456 557.514 204.191L554.396 203.474C554.337 203.73 554.277 203.985 554.216 204.241L557.328 204.986ZM559.246 193.682C559.26 193.546 559.273 193.409 559.286 193.272L556.101 192.967C556.088 193.098 556.075 193.23 556.062 193.361L559.246 193.682ZM559.286 193.272C559.299 193.141 559.311 193.01 559.323 192.879L556.137 192.58C556.125 192.709 556.113 192.838 556.101 192.967L559.286 193.272ZM560.017 182.34C560.028 182.07 560.038 181.8 560.048 181.529L556.85 181.414C556.84 181.681 556.83 181.947 556.82 182.213L560.017 182.34ZM560.184 170.926C560.181 170.652 560.178 170.378 560.174 170.103L556.975 170.144C556.978 170.415 556.981 170.686 556.984 170.956L560.184 170.926ZM559.816 159.501C559.801 159.229 559.786 158.957 559.77 158.684L556.576 158.867C556.591 159.137 556.606 159.406 556.621 159.675L559.816 159.501ZM558.957 148.146C558.931 147.878 558.905 147.61 558.878 147.342L555.694 147.66C555.72 147.925 555.746 148.19 555.772 148.454L558.957 148.146ZM557.622 136.837C557.585 136.569 557.547 136.301 557.509 136.033L554.341 136.484C554.379 136.749 554.416 137.014 554.453 137.278L557.622 136.837ZM555.813 125.585C555.764 125.318 555.715 125.052 555.665 124.785L552.519 125.37C552.568 125.633 552.617 125.897 552.665 126.16L555.813 125.585ZM553.519 114.416C553.458 114.152 553.397 113.887 553.336 113.622L550.219 114.345C550.279 114.607 550.339 114.868 550.399 115.129L553.519 114.416ZM550.721 103.358C550.648 103.097 550.575 102.835 550.501 102.573L547.421 103.442C547.494 103.7 547.566 103.958 547.638 104.216L550.721 103.358ZM547.392 92.4443C547.307 92.1865 547.22 91.9288 547.134 91.6713L544.101 92.6934C544.187 92.9471 544.272 93.201 544.356 93.455L547.392 92.4443ZM543.498 81.7141C543.398 81.4614 543.298 81.209 543.197 80.9568L540.226 82.1434C540.325 82.3915 540.423 82.6399 540.521 82.8885L543.498 81.7141ZM538.995 71.2183C538.881 70.9715 538.765 70.7251 538.649 70.479L535.754 71.8426C535.868 72.0843 535.982 72.3264 536.094 72.5688L538.995 71.2183ZM533.834 61.0161C533.703 60.7765 533.571 60.5373 533.438 60.2985L530.641 61.8529C530.771 62.087 530.9 62.3215 531.029 62.5564L533.834 61.0161ZM527.962 51.1889C527.813 50.9596 527.663 50.7309 527.513 50.5026L524.84 52.2618C524.987 52.4851 525.133 52.7088 525.279 52.933L527.962 51.1889ZM521.33 41.8434C521.162 41.6273 520.994 41.4118 520.825 41.1969L518.309 43.1732C518.473 43.3829 518.637 43.5931 518.801 43.8039L521.33 41.8434ZM513.898 33.1058C513.712 32.9061 513.524 32.707 513.336 32.5086L511.014 34.7101C511.197 34.9031 511.379 35.0968 511.561 35.2911L513.898 33.1058ZM505.647 25.1215C505.441 24.9415 505.234 24.7623 505.026 24.5839L502.941 27.0111C503.143 27.1842 503.343 27.358 503.544 27.5327L505.647 25.1215ZM496.589 18.0462C496.363 17.8895 496.137 17.7337 495.91 17.5787L494.105 20.2208C494.325 20.3708 494.544 20.5217 494.762 20.6735L496.589 18.0462ZM486.778 12.0299C486.535 11.8996 486.291 11.7703 486.047 11.6419L484.559 14.4751C484.795 14.5993 485.031 14.7244 485.266 14.8504L486.778 12.0299ZM476.325 7.19622C476.074 7.09738 475.822 6.99948 475.569 6.90251L474.423 9.89046C474.668 9.98427 474.912 10.079 475.155 10.1746L476.325 7.19622ZM465.404 3.62045C465.143 3.55133 464.882 3.48316 464.62 3.41593L463.824 6.51547C464.078 6.5806 464.331 6.64664 464.584 6.71359L465.404 3.62045ZM454.156 1.29431C453.89 1.25413 453.624 1.21487 453.356 1.17652L452.902 4.34405C453.161 4.38128 453.42 4.4194 453.678 4.4584L454.156 1.29431ZM442.731 0.160932C442.464 0.147721 442.196 0.135381 441.928 0.123915L441.791 3.321C442.053 3.33216 442.313 3.34417 442.574 3.35703L442.731 0.160932ZM431.249 0.124674C430.984 0.135663 430.718 0.147462 430.452 0.160074L430.603 3.35649C430.863 3.34418 431.123 3.33266 431.382 3.32194L431.249 0.124674ZM419.814 1.07035C419.545 1.10333 419.276 1.13709 419.006 1.17165L419.413 4.34573C419.677 4.3119 419.94 4.27884 420.204 4.24656L419.814 1.07035ZM408.58 2.86076C408.307 2.91399 408.034 2.968 407.76 3.02278L408.387 6.16062C408.656 6.10685 408.925 6.05384 409.193 6.0016L408.58 2.86076ZM397.493 5.39026C397.228 5.45924 396.963 5.52892 396.697 5.59929L397.516 8.69263C397.778 8.6234 398.039 8.55486 398.299 8.48701L397.493 5.39026ZM386.535 8.57398C386.279 8.65576 386.023 8.73816 385.767 8.82119L386.753 11.8655C387.006 11.7836 387.258 11.7024 387.51 11.6218L386.535 8.57398ZM375.669 12.3512C375.423 12.4432 375.177 12.5358 374.931 12.6289L376.063 15.622C376.306 15.5301 376.549 15.4387 376.791 15.3478L375.669 12.3512ZM365.177 16.5434C364.923 16.651 364.668 16.7593 364.414 16.8681L365.671 19.8106C365.923 19.703 366.174 19.596 366.426 19.4896L365.177 16.5434ZM354.808 21.1779C354.566 21.2918 354.323 21.4063 354.079 21.5213L355.447 24.4143C355.688 24.3005 355.928 24.1872 356.168 24.0744L354.808 21.1779ZM344.461 26.2609C344.335 26.325 344.21 26.3892 344.085 26.4536L345.548 29.2997C345.672 29.2359 345.796 29.1723 345.92 29.1088L344.461 26.2609ZM344.085 26.4536C343.96 26.5181 343.834 26.5827 343.709 26.6474L345.174 29.4919C345.299 29.4278 345.423 29.3637 345.548 29.2997L344.085 26.4536ZM334.172 31.7258C333.934 31.857 333.696 31.9883 333.458 32.1196L335.008 34.9196C335.243 34.7894 335.479 34.6592 335.715 34.5291L334.172 31.7258ZM324.441 37.2772C324.211 37.4133 323.982 37.5494 323.753 37.6856L325.388 40.4362C325.615 40.3012 325.842 40.1663 326.07 40.0315L324.441 37.2772ZM314.556 43.3556C314.327 43.5019 314.099 43.6483 313.871 43.7948L315.602 46.4861C315.828 46.3411 316.054 46.1962 316.28 46.0513L314.556 43.3556ZM305.196 49.5862C304.964 49.7468 304.733 49.9074 304.503 50.0681L306.333 52.6927C306.561 52.5338 306.79 52.3749 307.019 52.2161L305.196 49.5862ZM295.825 56.3723C295.611 56.5348 295.397 56.6974 295.183 56.86L297.123 59.4052C297.334 59.2445 297.545 59.084 297.757 58.9234L295.825 56.3723ZM286.909 63.4434C286.696 63.6211 286.483 63.799 286.27 63.9769L288.325 66.4302C288.534 66.2547 288.745 66.0792 288.955 65.9038L286.909 63.4434ZM278.33 70.9452C278.135 71.1245 277.941 71.304 277.748 71.4835L279.924 73.8295C280.115 73.6527 280.306 73.4759 280.498 73.2992L278.33 70.9452ZM270.072 78.9852C269.883 79.1805 269.694 79.3759 269.506 79.5713L271.813 81.789C271.998 81.5969 272.183 81.4048 272.37 81.2127L270.072 78.9852ZM262.389 87.4105C262.208 87.622 262.028 87.8336 261.849 88.0453L264.291 90.1136C264.467 89.9059 264.643 89.6982 264.821 89.4906L262.389 87.4105ZM255.284 96.3114C255.123 96.5283 254.963 96.7452 254.804 96.9621L257.383 98.8559C257.539 98.6435 257.696 98.431 257.854 98.2186L255.284 96.3114ZM248.757 105.848C248.614 106.075 248.472 106.303 248.33 106.531L251.05 108.217C251.188 107.994 251.327 107.772 251.467 107.549L248.757 105.848ZM243.054 115.843C242.929 116.085 242.805 116.328 242.683 116.57L245.538 118.015C245.657 117.779 245.778 117.543 245.899 117.306L243.054 115.843ZM238.276 126.297C238.173 126.552 238.072 126.807 237.972 127.063L240.951 128.232C241.048 127.984 241.147 127.735 241.246 127.487L238.276 126.297ZM234.54 137.174C234.464 137.44 234.389 137.706 234.315 137.971L237.398 138.83C237.47 138.572 237.543 138.314 237.616 138.056L234.54 137.174ZM231.969 148.4C231.922 148.673 231.877 148.946 231.832 149.218L234.99 149.734C235.033 149.47 235.078 149.206 235.123 148.941L231.969 148.4ZM230.669 159.857C230.653 160.133 230.639 160.409 230.626 160.685L233.823 160.835C233.835 160.568 233.849 160.301 233.864 160.033L230.669 159.857ZM230.712 171.396C230.73 171.672 230.749 171.948 230.768 172.223L233.96 171.993C233.941 171.727 233.923 171.461 233.906 171.194L230.712 171.396ZM232.133 182.852C232.183 183.124 232.234 183.394 232.287 183.665L235.428 183.054C235.377 182.792 235.327 182.531 235.279 182.269L232.133 182.852ZM234.916 194.056C234.998 194.319 235.082 194.581 235.166 194.842L238.212 193.86C238.13 193.607 238.049 193.354 237.97 193.1L234.916 194.056ZM239.013 204.846C239.126 205.097 239.24 205.347 239.354 205.597L242.262 204.261C242.151 204.02 242.042 203.778 241.933 203.535L239.013 204.846ZM244.349 215.079C244.49 215.314 244.632 215.549 244.774 215.783L247.507 214.118C247.369 213.891 247.232 213.664 247.095 213.436L244.349 215.079ZM250.833 224.621C251 224.839 251.167 225.056 251.336 225.271L253.859 223.303C253.696 223.094 253.533 222.884 253.372 222.673L250.833 224.621ZM258.37 233.354C258.561 233.551 258.753 233.747 258.945 233.943L261.225 231.697C261.039 231.508 260.853 231.318 260.668 231.127L258.37 233.354ZM266.873 241.164C267.087 241.339 267.301 241.512 267.517 241.685L269.519 239.189C269.311 239.022 269.103 238.854 268.896 238.685L266.873 241.164ZM276.245 247.923C276.478 248.07 276.712 248.217 276.946 248.362L278.634 245.643C278.407 245.503 278.182 245.361 277.956 245.219L276.245 247.923ZM286.379 253.484C286.629 253.601 286.879 253.717 287.129 253.831L288.46 250.922C288.219 250.811 287.978 250.699 287.737 250.587L286.379 253.484ZM297.155 257.688C297.418 257.771 297.681 257.852 297.944 257.932L298.872 254.869C298.619 254.792 298.366 254.714 298.113 254.635L297.155 257.688ZM308.421 260.357C308.693 260.401 308.965 260.443 309.237 260.484L309.711 257.319C309.45 257.28 309.189 257.24 308.929 257.198L308.421 260.357ZM319.981 261.309C320.258 261.31 320.534 261.309 320.811 261.307L320.784 258.107C320.52 258.109 320.256 258.11 319.991 258.109L319.981 261.309ZM331.552 260.392C331.825 260.347 332.098 260.301 332.37 260.252L331.813 257.101C331.554 257.147 331.294 257.191 331.033 257.234L331.552 260.392ZM342.808 257.54C343.07 257.449 343.332 257.357 343.594 257.262L342.508 254.252C342.259 254.342 342.009 254.43 341.759 254.517L342.808 257.54ZM353.422 252.816C353.667 252.681 353.912 252.545 354.156 252.407L352.581 249.621C352.348 249.753 352.115 249.883 351.881 250.012L353.422 252.816ZM363.12 246.417C363.342 246.244 363.564 246.069 363.786 245.892L361.792 243.389C361.58 243.559 361.367 243.726 361.153 243.892L363.12 246.417ZM371.725 238.642C371.823 238.54 371.922 238.437 372.02 238.334L369.702 236.127C369.608 236.226 369.513 236.325 369.418 236.424L371.725 238.642ZM372.02 238.334C372.115 238.234 372.209 238.134 372.303 238.034L369.971 235.843C369.882 235.938 369.793 236.033 369.702 236.127L372.02 238.334ZM378.867 229.737C379.017 229.509 379.166 229.28 379.312 229.051L376.616 227.327C376.478 227.544 376.337 227.761 376.195 227.976L378.867 229.737ZM384.196 219.666C384.3 219.416 384.401 219.165 384.5 218.914L381.524 217.737C381.43 217.974 381.335 218.212 381.237 218.449L384.196 219.666ZM387.498 208.76C387.552 208.493 387.603 208.226 387.653 207.959L384.507 207.372C384.46 207.625 384.411 207.878 384.361 208.131L387.498 208.76ZM388.67 197.431C388.672 197.159 388.673 196.887 388.671 196.616L385.471 196.631C385.473 196.888 385.472 197.146 385.47 197.403L388.67 197.431ZM387.703 186.08C387.655 185.813 387.605 185.547 387.553 185.281L384.412 185.891C384.461 186.143 384.509 186.396 384.554 186.649L387.703 186.08ZM384.627 175.109C384.528 174.855 384.428 174.602 384.327 174.35L381.359 175.547C381.455 175.785 381.55 176.024 381.642 176.264L384.627 175.109ZM379.466 164.933C379.318 164.703 379.169 164.475 379.018 164.248L376.354 166.02C376.496 166.234 376.636 166.449 376.776 166.665L379.466 164.933ZM372.26 156.049C372.065 155.858 371.868 155.667 371.669 155.479L369.467 157.801C369.653 157.977 369.837 158.155 370.02 158.334L372.26 156.049ZM363.151 149.072C362.914 148.934 362.676 148.798 362.436 148.664L360.877 151.459C361.099 151.583 361.32 151.709 361.54 151.837L363.151 149.072ZM352.548 144.641C352.282 144.569 352.015 144.5 351.746 144.433L350.973 147.538C351.222 147.6 351.469 147.664 351.716 147.731L352.548 144.641ZM341.172 143.121C340.899 143.12 340.625 143.12 340.351 143.123L340.387 146.323C340.643 146.32 340.898 146.32 341.153 146.321L341.172 143.121ZM329.788 144.376C329.652 144.406 329.517 144.437 329.381 144.468L330.099 147.586C330.227 147.557 330.355 147.528 330.483 147.499L329.788 144.376Z"
          fill="white"/>
</svg>
