<svg width="1822" height="210" viewBox="0 0 1822 210" fill="none" xmlns="http://www.w3.org/2000/svg">
    <path d="M320.637 148.198C162.495 136.074 41.2528 210.794 0.399414 249.67L1822 255.6V168.624C1817.26 159.136 1779.17 157.203 1760.72 157.423C1713.28 41.4546 1545.25 44.5295 1467.17 60.563C1451.35 46.3305 1402.01 43.2118 1379.31 43.4315C1335.49 -1.17586 1232.91 10.2131 1186.47 21.6874C1068.65 -30.4982 959.466 25.4212 919.601 59.904C905.368 51.47 883.36 56.3898 874.135 59.904C745.249 6.1371 633.297 61.222 593.432 95.4853C464.547 53.3151 357.867 113.056 320.637 148.198Z"
          fill="#D798F9"/>
</svg>
