<svg width="1596" height="138" viewBox="0 0 1596 138" fill="none" xmlns="http://www.w3.org/2000/svg">
    <path d="M94.6373 148.198C-63.5049 136.074 -184.747 210.794 -225.601 249.67L1596 255.6V168.624C1591.26 159.136 1553.17 157.203 1534.72 157.423C1487.28 41.4546 1319.25 44.5295 1241.17 60.563C1225.35 46.3305 1176.01 43.2118 1153.31 43.4315C1109.49 -1.17586 1006.91 10.2131 960.466 21.6874C842.65 -30.4982 733.466 25.4212 693.601 59.904C679.368 51.47 657.36 56.3898 648.135 59.904C519.249 6.1371 407.297 61.222 367.432 95.4853C238.547 53.3151 131.867 113.056 94.6373 148.198Z"
          fill="#F2AEFA"/>
</svg>
